<?xml version="1.0" encoding="UTF-8"?>
<svg id="Layer_2" xmlns="http://www.w3.org/2000/svg" version="1.1" viewBox="0 0 792 300">
  <!-- Generator: Adobe Illustrator 29.0.1, SVG Export Plug-In . SVG Version: 2.1.0 Build 192)  -->
  <defs>
    <style>
      .st0 {
        fill: #4c4c4c;
      }

      .st1 {
        fill: #525252;
      }

      .st2 {
        font-family: FranklinGothicCondensed, 'Franklin Gothic';
        font-size: 138.58px;
      }
    </style>
  </defs>
  <path class="st0" d="M179.79,122.53s-53.85,23.5-119.74-.18c0,0-11.13,53.17,42.36,40.77,0,0,16.12-7.79,35.8.43,19.68,8.22,48.69-4.06,41.58-41.01ZM69.54,131.89s19.19,2.84,38.97,15.93c0,0-16.1,27.59-38.97-15.93ZM145.46,155.55c-17.85,2.49-12.36-5.11-15.79-5.39,0,0,15.53-11.04,39.04-17.89,0,0-5.4,20.79-23.25,23.28Z"/>
  <path class="st1" d="M179.37,83.19s3.44,12.11,4.37,23.72c.2,2.55,5.87.4,5.87.4,0,0,12.95-10.01,5.4-20.65-7.01-9.88-15.64-3.46-15.64-3.46Z"/>
  <path class="st1" d="M189.02,79.32s.14-26.14,26.67-37.66c26.53-11.52,22.84,2.6,44.17-3.32,0,0-12.31,24.19-36.97,28.2s-27.97,16.43-27.97,16.43c-.82-1.22-2.78-2.43-5.89-3.65Z"/>
  <path class="st1" d="M197.09,86.66s3.13,7.45,0,10.98c0,0,24.01,9.68,33.9-3.41s17.67-12.9,20.8-9.49c0,0-7.5-14.41-28.45-11.66-20.95,2.75-16.87,12.59-26.26,13.57Z"/>
  <path d="M31.07,61.99c-.41,3.93-1.29,8.07-1.6,11.99-5.85,72.95,10.07,146.8,80.78,181.51,1.93.95,8.72,4.22,10.3,4.45,4.57.66,27.72-13.94,32.58-17.48,44.93-32.69,60.52-84.66,58.55-138.74l8.5.69c1.56,27.01-1.91,55.2-11.42,80.52-14.54,38.7-48.77,72.63-87.78,86.29-36.8-14.8-67.03-40.99-83.57-77.37-19.38-42.62-20.26-91.35-16.78-137.38,21.48-11.83,45.68-21.52,69.51-27.64,16.26-4.18,26.9-6.44,43.81-3.51,13.39,2.32,28.94,7.39,41.26,13.11,2.98,1.39,17.42,8.92,18.51,10.91.99,1.81-3.2,6.79-5.02,6.53-1.16-.17-13.45-7.96-16.43-9.36-9.67-4.52-21.42-8.44-31.85-10.77-17.54-3.91-24.37-3.21-41.62,1.01-23.15,5.67-46.28,15-67.73,25.22Z"/>
  <text class="st2" transform="translate(251.79 192.72)"><tspan x="0" y="0">StealthJS</tspan></text>
  <path class="st1" d="M162.3,108.15l-1.42-1.13s6.92-.57,10-3.13c0,0-2.32-3.13-6.87-1.71,0,0,10.57-2.99,15.09-5.98-1.05-4.59-2.73-9.67-5.37-14.75-5.44,3.16-21.02,10.14-48.69,6.8,0,0,30.76-2.8,45.91-11.57-8.21-12.59-23.14-24.17-50.24-26.9,0,0-42.03-.21-58.75,41.48,15.05,3.79,23.54,12.64,23.54,12.64-11.88.82-21.83-2.2-26.47-3.95-1.2,4.32-2.15,9.01-2.8,14.1,0,0,63.88,21.42,124.51-.1,0,0,.44-5.05-.62-12.33-2.05,1.35-8.21,4.94-17.81,6.54Z"/>
  <path class="st1" d="M134.29,170.42c-16.35-7.9-30.5-.63-30.5-.63-31.21,12.52-46.78-13.15-46.78-13.15,6.48,64.21,63.71,84.19,63.71,84.19,60.81-27.94,62.98-81.69,62.98-81.69-21.27,19.49-33.05,19.19-49.41,11.29ZM151.28,192.64s-10.59,1.13-6.9-5.13c0,0,10.84,3.98,20.63-4.55,0,0-2.26,6.24-13.74,9.68Z"/>
</svg>